<?xml version="1.0" encoding="UTF-8"?>
<svg version="1.1" xmlns="http://www.w3.org/2000/svg" width="64" height="64">
<path d="M0 0 C2.12665841 0.00316539 4.25193051 -0.02035651 6.37841797 -0.0456543 C7.74430165 -0.0479273 9.11018903 -0.04863078 10.47607422 -0.04760742 C11.70519531 -0.05058838 12.93431641 -0.05356934 14.20068359 -0.05664062 C18.6882005 0.4302307 21.97541919 1.94444208 25.44482422 4.81567383 C28.2606761 8.37253936 27.80980955 12.57158588 27.83544922 16.87036133 C27.84114929 17.60892365 27.84684937 18.34748596 27.85272217 19.10842896 C27.86216067 20.67017184 27.86870159 22.23193453 27.87255859 23.79370117 C27.88226068 26.17507908 27.913292 28.55559226 27.94482422 30.93676758 C27.95135516 32.45629372 27.95660528 33.97582601 27.96044922 35.49536133 C27.97279602 36.20385223 27.98514282 36.91234314 27.99786377 37.64230347 C27.97379682 43.0204591 26.5387383 45.9948219 23.19482422 50.06567383 C18.20631875 54.05647821 10.05251427 52.53983336 3.98828125 52.5559082 C1.77159054 52.56561138 -0.44417121 52.59665766 -2.66064453 52.62817383 C-4.08121198 52.63470517 -5.50178602 52.63995513 -6.92236328 52.64379883 C-8.84798096 52.65781738 -8.84798096 52.65781738 -10.8125 52.67211914 C-15.75093126 52.17698732 -18.97116489 50.96163415 -22.21557617 47.13769531 C-23.71593122 43.46263618 -23.8167141 40.07138892 -23.80126953 36.16333008 C-23.80651138 35.38557724 -23.81175323 34.6078244 -23.81715393 33.8065033 C-23.82355765 32.16674998 -23.82225852 30.52695062 -23.8137207 28.88720703 C-23.80521339 26.3892164 -23.83398704 23.89351681 -23.86572266 21.39575195 C-23.86733505 19.79744534 -23.8667564 18.19913471 -23.86376953 16.60083008 C-23.87500351 15.86002701 -23.88623749 15.11922394 -23.89781189 14.35597229 C-23.82926834 9.21093852 -22.81402176 6.14897543 -19.36767578 2.31567383 C-13.29630474 -0.62217165 -6.59712947 -0.02057317 0 0 Z " fill="#020A23" transform="translate(30.36767578125,5.684326171875)"/>
<path d="M0 0 C4.30293895 1.35882283 5.97460453 5.14940679 8.375 8.75 C9.38523822 14.74973536 9.84061575 20.43377636 6.50390625 25.70703125 C4.21772496 28.09081634 2.22926491 30.08186173 -0.625 31.75 C-3.38012452 31.67187738 -4.41174907 30.93013743 -6.51171875 29.15625 C-7.10597656 28.5271875 -7.70023438 27.898125 -8.3125 27.25 C-8.91449219 26.6209375 -9.51648438 25.991875 -10.13671875 25.34375 C-10.62785156 24.8178125 -11.11898438 24.291875 -11.625 23.75 C-11.955 23.42 -12.285 23.09 -12.625 22.75 C-12.955 23.08 -13.285 23.41 -13.625 23.75 C-12.965 24.08 -12.305 24.41 -11.625 24.75 C-12.03183495 27.10964273 -12.52314339 28.60934088 -13.9375 30.5625 C-15.625 31.75 -15.625 31.75 -17.46484375 31.52734375 C-22.00098493 29.89498915 -25.0327351 26.73809985 -27.625 22.75 C-28.84581483 18.14185388 -28.88670278 14.35150426 -27.625 9.75 C-25.13811832 6.27349325 -22.45214614 3.68891841 -18.625 1.75 C-14.99834906 1.8942418 -13.29094946 3.75716884 -10.875 6.3125 C-10.26140625 6.95316406 -9.6478125 7.59382813 -9.015625 8.25390625 C-8.55671875 8.74761719 -8.0978125 9.24132813 -7.625 9.75 C-7.955 10.41 -8.285 11.07 -8.625 11.75 C-9.615 11.75 -10.605 11.75 -11.625 11.75 C-11.625 12.41 -11.625 13.07 -11.625 13.75 C-10.635 14.08 -9.645 14.41 -8.625 14.75 C-8.625 15.41 -8.625 16.07 -8.625 16.75 C-8.0475 17.018125 -7.47 17.28625 -6.875 17.5625 C-0.99709302 20.66472868 -0.99709302 20.66472868 0.125 23.9375 C0.24875 24.8346875 0.24875 24.8346875 0.375 25.75 C1.695 24.1 3.015 22.45 4.375 20.75 C3.055 20.75 1.735 20.75 0.375 20.75 C0.375 17.78 0.375 14.81 0.375 11.75 C1.695 11.75 3.015 11.75 4.375 11.75 C3.055 10.1 1.735 8.45 0.375 6.75 C-0.3675 6.915 -1.11 7.08 -1.875 7.25 C-4.625 7.75 -4.625 7.75 -8.625 7.75 C-3.64488899 1.04139685 -3.64488899 1.04139685 0 0 Z " fill="#059DB1" transform="translate(42.625,11.25)"/>
<path d="M0 0 C0.33 0.99 0.66 1.98 1 3 C1.99 2.34 2.98 1.68 4 1 C6.1875 1.375 6.1875 1.375 8 2 C7.01 2 6.02 2 5 2 C5 3.32 5 4.64 5 6 C5.99 6 6.98 6 8 6 C9.82421875 7.75 9.82421875 7.75 11.6875 10 C12.31011719 10.7425 12.93273437 11.485 13.57421875 12.25 C14.04472656 12.8275 14.51523437 13.405 15 14 C13.35 15.32 11.7 16.64 10 18 C10.66 18.33 11.32 18.66 12 19 C11.59316505 21.35964273 11.10185661 22.85934088 9.6875 24.8125 C8 26 8 26 6.16015625 25.77734375 C1.63753637 24.14985486 -1.44534883 21.00068013 -4 17 C-4.89135272 12.54323642 -5.01015622 8.43998895 -4 4 C-1.953125 1.609375 -1.953125 1.609375 0 0 Z " fill="#052424" transform="translate(19,17)"/>
<path d="M0 0 C2.23775292 1.00313062 3.8507388 1.84476835 5.5625 3.625 C7.02978279 5.34561132 7.02978279 5.34561132 10 5 C11.67099977 4.68911632 13.33871537 4.35919668 15 4 C15.33 4.99 15.66 5.98 16 7 C16.99 7.33 17.98 7.66 19 8 C19 8.66 19 9.32 19 10 C17.68 10 16.36 10 15 10 C15 12.97 15 15.94 15 19 C16.32 19 17.64 19 19 19 C17.84826645 21.46800047 16.95216435 23.04783565 15 25 C12.875 24.625 12.875 24.625 11 24 C11.99 24 12.98 24 14 24 C14 22.68 14 21.36 14 20 C13.41734375 19.731875 12.8346875 19.46375 12.234375 19.1875 C9.97213399 17.98519009 8.19423682 16.66174087 6.25 15 C5.63640625 14.484375 5.0228125 13.96875 4.390625 13.4375 C3 12 3 12 3 10 C3.99 9.34 4.98 8.68 6 8 C5.566875 7.59007812 5.13375 7.18015625 4.6875 6.7578125 C4.130625 6.21898437 3.57375 5.68015625 3 5.125 C2.443125 4.59132813 1.88625 4.05765625 1.3125 3.5078125 C0 2 0 2 0 0 Z " fill="#021F28" transform="translate(28,13)"/>
<path d="M0 0 C2.63510541 0.98635138 3.95332126 2.32269856 5.87890625 4.359375 C6.4925 5.00003906 7.10609375 5.64070313 7.73828125 6.30078125 C8.1971875 6.79449219 8.65609375 7.28820312 9.12890625 7.796875 C8.79890625 8.456875 8.46890625 9.116875 8.12890625 9.796875 C7.13890625 9.796875 6.14890625 9.796875 5.12890625 9.796875 C5.12890625 10.456875 5.12890625 11.116875 5.12890625 11.796875 C6.11890625 12.126875 7.10890625 12.456875 8.12890625 12.796875 C8.12890625 13.456875 8.12890625 14.116875 8.12890625 14.796875 C8.70640625 15.065 9.28390625 15.333125 9.87890625 15.609375 C12.22525448 16.84772545 14.18098377 17.98808984 16.12890625 19.796875 C16.12890625 21.116875 16.12890625 22.436875 16.12890625 23.796875 C11.71883763 23.3663683 9.29890052 20.3751696 6.37890625 17.359375 C5.87230469 16.85599609 5.36570312 16.35261719 4.84375 15.83398438 C1.12890625 12.06406882 1.12890625 12.06406882 1.12890625 9.796875 C0.13890625 9.796875 -0.85109375 9.796875 -1.87109375 9.796875 C-2.20109375 8.476875 -2.53109375 7.156875 -2.87109375 5.796875 C-3.86109375 6.126875 -4.85109375 6.456875 -5.87109375 6.796875 C-5.4642588 4.43723227 -4.97295036 2.93753412 -3.55859375 0.984375 C-1.87109375 -0.203125 -1.87109375 -0.203125 0 0 Z " fill="#0FB19C" transform="translate(25.87109375,13.203125)"/>
<path d="M0 0 C3.36050469 1.06121201 4.4817502 2.84250923 6.375 5.75 C6.705 6.74 7.035 7.73 7.375 8.75 C6.715 8.75 6.055 8.75 5.375 8.75 C5.375 12.38 5.375 16.01 5.375 19.75 C5.045 19.75 4.715 19.75 4.375 19.75 C4.375 17.44 4.375 15.13 4.375 12.75 C3.385 12.75 2.395 12.75 1.375 12.75 C1.375 15.39 1.375 18.03 1.375 20.75 C1.045 20.75 0.715 20.75 0.375 20.75 C0.375 17.78 0.375 14.81 0.375 11.75 C1.695 11.75 3.015 11.75 4.375 11.75 C3.055 10.1 1.735 8.45 0.375 6.75 C-0.3675 6.915 -1.11 7.08 -1.875 7.25 C-4.625 7.75 -4.625 7.75 -8.625 7.75 C-3.64488899 1.04139685 -3.64488899 1.04139685 0 0 Z " fill="#045A6A" transform="translate(42.625,11.25)"/>
<path d="M0 0 C4 0 4 0 5.921875 1.75 C6.52515625 2.4925 7.1284375 3.235 7.75 4 C8.36359375 4.7425 8.9771875 5.485 9.609375 6.25 C10.06828125 6.8275 10.5271875 7.405 11 8 C10.01 8 9.02 8 8 8 C5.65789079 8.63514826 3.32315031 9.2986716 1 10 C1 11.32 1 12.64 1 14 C1.99 14.33 2.98 14.66 4 15 C2.35 14.67 0.7 14.34 -1 14 C-1 13.34 -1 12.68 -1 12 C-1.99 11.67 -2.98 11.34 -4 11 C-4 10.34 -4 9.68 -4 9 C-2.68 9 -1.36 9 0 9 C0 6.03 0 3.06 0 0 Z " fill="#01121A" transform="translate(23,23)"/>
<path d="M0 0 C-0.99 1.32 -1.98 2.64 -3 4 C-2.34 4.33 -1.68 4.66 -1 5 C-1.40683495 7.35964273 -1.89814339 8.85934088 -3.3125 10.8125 C-5 12 -5 12 -7 11.875 C-9.26940379 10.88213584 -10.49068284 9.96211231 -12 8 C-12 7.01 -12 6.02 -12 5 C-10.68 5.33 -9.36 5.66 -8 6 C-8 4.68 -8 3.36 -8 2 C-3.82258065 -1.27419355 -3.82258065 -1.27419355 0 0 Z " fill="#089C9E" transform="translate(32,31)"/>
<path d="M0 0 C0 2.97 0 5.94 0 9 C1.32 9 2.64 9 4 9 C2.84826645 11.46800047 1.95216435 13.04783565 0 15 C-2.125 14.625 -2.125 14.625 -4 14 C-3.01 14 -2.02 14 -1 14 C-1 12.68 -1 11.36 -1 10 C-1.598125 9.7525 -2.19625 9.505 -2.8125 9.25 C-5.28647521 7.83629988 -6.43370255 6.34944617 -8 4 C-3.375 0 -3.375 0 0 0 Z " fill="#001223" transform="translate(43,23)"/>
<path d="M0 0 C3.98618652 1.36669252 6.96438602 3.05111785 10 6 C10 7.32 10 8.64 10 10 C6.7451198 9.41978222 5.06347592 8.47352859 2.75 6.125 C2.22921875 5.61195312 1.7084375 5.09890625 1.171875 4.5703125 C0 3 0 3 0 0 Z " fill="#0ABCC0" transform="translate(32,27)"/>
<path d="M0 0 C3.24208567 0.35049575 4.61527704 0.56221181 6.8125 3.0625 C7.204375 3.701875 7.59625 4.34125 8 5 C6.68 5 5.36 5 4 5 C3.175 5.165 2.35 5.33 1.5 5.5 C-1 6 -1 6 -5 6 C-3.35 4.02 -1.7 2.04 0 0 Z " fill="#0BCBC8" transform="translate(39,13)"/>
<path d="M0 0 C3.24271506 0.5590888 4.93057424 1.4132178 7 4 C7 4.66 7 5.32 7 6 C7.99 6.33 8.98 6.66 10 7 C9.01 7 8.02 7 7 7 C6.67 7.99 6.34 8.98 6 10 C3.69 7.69 1.38 5.38 -1 3 C-0.67 2.01 -0.34 1.02 0 0 Z " fill="#048892" transform="translate(32,32)"/>
<path d="M0 0 C0.99 0 1.98 0 3 0 C3 4.62 3 9.24 3 14 C2.01 14 1.02 14 0 14 C0 9.38 0 4.76 0 0 Z " fill="#08BBD0" transform="translate(48,20)"/>
<path d="M0 0 C0.99 0 1.98 0 3 0 C3 4.29 3 8.58 3 13 C2.01 13 1.02 13 0 13 C0 8.71 0 4.42 0 0 Z " fill="#11C6A8" transform="translate(15,21)"/>
<path d="M0 0 C0.99 0 1.98 0 3 0 C3 0.66 3 1.32 3 2 C3.66 2 4.32 2 5 2 C5 2.66 5 3.32 5 4 C5.66 4 6.32 4 7 4 C7 4.66 7 5.32 7 6 C7.99 6.33 8.98 6.66 10 7 C9.01 7.495 9.01 7.495 8 8 C7.67 8.66 7.34 9.32 7 10 C5.62437146 8.71034824 4.29233607 7.37310707 3 6 C3 5.34 3 4.68 3 4 C2.01 4 1.02 4 0 4 C0 2.68 0 1.36 0 0 Z " fill="#11C8B4" transform="translate(24,19)"/>
<path d="M0 0 C0.33 0 0.66 0 1 0 C1 11.88 1 23.76 1 36 C0.67 36 0.34 36 0 36 C0 24.12 0 12.24 0 0 Z " fill="#000101" transform="translate(5,14)"/>
<path d="M0 0 C0.66 1.32 1.32 2.64 2 4 C1.67 4.33 1.34 4.66 1 5 C0.87485072 6.97619447 0.8242724 8.95738173 0.8125 10.9375 C0.79832031 12.01902344 0.78414062 13.10054687 0.76953125 14.21484375 C0.70951969 17.14044315 0.70951969 17.14044315 3 19 C2.34 19 1.68 19 1 19 C0.67 19.66 0.34 20.32 0 21 C-0.99 19.68 -1.98 18.36 -3 17 C-2.34 17 -1.68 17 -1 17 C-1 12.71 -1 8.42 -1 4 C-1.66 3.67 -2.32 3.34 -3 3 C-2.01 2.01 -1.02 1.02 0 0 Z " fill="#098783" transform="translate(19,17)"/>
<path d="M0 0 C0.33 0 0.66 0 1 0 C1 11.22 1 22.44 1 34 C0.67 34 0.34 34 0 34 C0 22.78 0 11.56 0 0 Z " fill="#000000" transform="translate(59,15)"/>
<path d="M0 0 C10.56 0 21.12 0 32 0 C32 0.33 32 0.66 32 1 C21.44 1 10.88 1 0 1 C0 0.67 0 0.34 0 0 Z " fill="#000000" transform="translate(16,59)"/>
<path d="M0 0 C10.23 0 20.46 0 31 0 C31 0.33 31 0.66 31 1 C20.77 1 10.54 1 0 1 C0 0.67 0 0.34 0 0 Z " fill="#000000" transform="translate(17,4)"/>
<path d="M0 0 C0 1.32 0 2.64 0 4 C-1.32 4.33 -2.64 4.66 -4 5 C-4 5.66 -4 6.32 -4 7 C-4.99 7 -5.98 7 -7 7 C-6.22006468 2.47637516 -4.81844319 0 0 0 Z " fill="#06AAB1" transform="translate(42,19)"/>
<path d="M0 0 C-3.61328125 4.6875 -3.61328125 4.6875 -5 6 C-5.99 6 -6.98 6 -8 6 C-8 4.68 -8 3.36 -8 2 C-3.82258065 -1.27419355 -3.82258065 -1.27419355 0 0 Z " fill="#07B9CC" transform="translate(47,37)"/>
<path d="M0 0 C0.598125 0.309375 1.19625 0.61875 1.8125 0.9375 C4.08956772 2.10209704 4.08956772 2.10209704 7 3 C7 4.32 7 5.64 7 7 C3.76509224 6.44225728 2.02144994 5.62788492 0 3 C0 2.01 0 1.02 0 0 Z " fill="#09BFB8" transform="translate(20,36)"/>
<path d="M0 0 C0 1.32 0 2.64 0 4 C-4.07142857 7 -4.07142857 7 -7 7 C-6.22006468 2.47637516 -4.81844319 0 0 0 Z " fill="#15DCBA" transform="translate(27,13)"/>
<path d="M0 0 C0.99 0 1.98 0 3 0 C3 2.64 3 5.28 3 8 C2.01 8 1.02 8 0 8 C0 5.36 0 2.72 0 0 Z " fill="#13CFB3" transform="translate(20,24)"/>
<path d="M0 0 C1.32 0 2.64 0 4 0 C2.84826645 2.46800047 1.95216435 4.04783565 0 6 C-2.125 5.625 -2.125 5.625 -4 5 C-3.01 4.67 -2.02 4.34 -1 4 C-0.26676204 1.98491642 -0.26676204 1.98491642 0 0 Z " fill="#010910" transform="translate(43,32)"/>
<path d="M0 0 C2.25 -0.3125 2.25 -0.3125 5 0 C7.3125 2.5 7.3125 2.5 9 5 C6 5 6 5 4.5 3.625 C4.005 3.08875 3.51 2.5525 3 2 C2.01 1.34 1.02 0.68 0 0 Z " fill="#052E49" transform="translate(40,12)"/>
<path d="M0 0 C1.65 0 3.3 0 5 0 C5 1.32 5 2.64 5 4 C3.0625 3.6875 3.0625 3.6875 1 3 C0.67 2.01 0.34 1.02 0 0 Z " fill="#06BECF" transform="translate(37,33)"/>
<path d="M0 0 C4 1 4 1 4 1 Z " fill="#102030" transform="translate(48,5)"/>
<path d="M0 0 C4 1 4 1 4 1 Z " fill="#001010" transform="translate(13,5)"/>
<path d="M0 0 C3 1 3 1 3 1 Z " fill="#001515" transform="translate(49,58)"/>
<path d="M0 0 C3 1 3 1 3 1 Z " fill="#000000" transform="translate(13,58)"/>
<path d="" fill="#000000" transform="translate(0,0)"/>
<path d="" fill="#001515" transform="translate(0,0)"/>
<path d="M0 0 C2 1 2 1 2 1 Z " fill="#002020" transform="translate(11,57)"/>
<path d="M0 0 C2 1 2 1 2 1 Z " fill="#002020" transform="translate(53,56)"/>
<path d="" fill="#002020" transform="translate(0,0)"/>
<path d="" fill="#000000" transform="translate(0,0)"/>
<path d="" fill="#002020" transform="translate(0,0)"/>
<path d="" fill="#000000" transform="translate(0,0)"/>
<path d="" fill="#000000" transform="translate(0,0)"/>
<path d="M0 0 C2 1 2 1 2 1 Z " fill="#002020" transform="translate(53,7)"/>
<path d="M0 0 C2 1 2 1 2 1 Z " fill="#000000" transform="translate(11,6)"/>
<path d="" fill="#000000" transform="translate(0,0)"/>
<path d="" fill="#000000" transform="translate(0,0)"/>
<path d="" fill="#000000" transform="translate(0,0)"/>
<path d="" fill="#000000" transform="translate(0,0)"/>
<path d="" fill="#000000" transform="translate(0,0)"/>
<path d="" fill="#004040" transform="translate(0,0)"/>
<path d="" fill="#000000" transform="translate(0,0)"/>
<path d="" fill="#004040" transform="translate(0,0)"/>
<path d="" fill="#000000" transform="translate(0,0)"/>
<path d="" fill="#000000" transform="translate(0,0)"/>
<path d="" fill="#000000" transform="translate(0,0)"/>
<path d="" fill="#004040" transform="translate(0,0)"/>
<path d="" fill="#004040" transform="translate(0,0)"/>
</svg>
